{"title":"Rugby.Union-Scrum.V-2013.03.03.pdtv.x264","uid":8224354,"size":434397206,"categoryP":"video","categoryS":"tv_shows","magnet":"?xt=urn:btih:0750ecf38389b5290ff563a8c5e335af6b4ada57&amp;dn=Rugby.Union-Scrum.V-2013.03.03.pdtv.x264&amp;tr=udp%3A%2F%2Ftracker.openbittorrent.com%3A80&amp;tr=udp%3A%2F%2Fopen.demonii.com%3A1337&amp;tr=udp%3A%2F%2Ftracker.coppersurfer.tk%3A6969&amp;tr=udp%3A%2F%2Fexodus.desync.com%3A6969","seeders":1,"leechers":0,"uploader":null,"files":4,"time":1362557919,"description":"SPORT: Scrum V\nOn: BBC 2 Wales \nDate: Sunday 3rd March 2013 \nTime: 18:30 to 19:15 \n\nRoss Harries presents Scrum V with a round-up of the weekend's Pro 12 action and a look ahead to Wales's penultimate game of the Six Nations against Scotland. Studio guests include former Wales internationals Jonathan Davies and Martyn Williams.\n\n\nGeneral\nComplete name: 2013.03.03.Scrum.V.pdtv.x264.mp4\nFormat : MPEG-4\nFormat profile : Base Media\nCodec ID : isom\nFile size: 414 MiB\nDuration : 44mn 1s\nOverall bit rate mode: Variable\nOverall bit rate : 1 314 Kbps\n\nVideo\nID : 1\nFormat : AVC\nFormat/Info: Advanced Video Codec\nFormat profile : &lt;a class=&quot;__cf_email__&quot; href=&quot;/cdn-cgi/l/email-protection&quot; data-cfemail=&quot;3179585659717d021f00&quot;&gt;[email&amp;#160;protected]&lt;/a&gt;&lt;script cf-hash='f9e31' type=&quot;text/javascript&quot;&gt;\n/* &lt;![CDATA[ */!function(){try{var t=&quot;currentScript&quot;in document?document.currentScript:function(){for(var t=document.getElementsByTagName(&quot;script&quot;),e=t.length;e--;)if(t[e].getAttribute(&quot;cf-hash&quot;))return t[e]}();if(t&amp;&amp;t.previousSibling){var e,r,n,i,c=t.previousSibling,a=c.getAttribute(&quot;data-cfemail&quot;);if(a){for(e=&quot;&quot;,r=parseInt(a.substr(0,2),16),n=2;a.length-n;n+=2)i=parseInt(a.substr(n,2),16)^r,e+=String.fromCharCode(i);e=document.createTextNode(e),c.parentNode.replaceChild(e,c)}}}catch(u){}}();/* ]]&gt; */&lt;/script&gt;\nFormat settings, CABAC : Yes\nFormat settings, ReFrames: 5 frames\nCodec ID : avc1\nCodec ID/Info: Advanced Video Coding\nDuration : 44mn 1s\nBit rate : 1 182 Kbps\nMaximum bit rate : 5 383 Kbps\nWidth: 720 pixels\nHeight : 416 pixels\nDisplay aspect ratio : 1.731\nFrame rate mode: Constant\nFrame rate : 25.000 fps\nColor space: YUV\nChroma subsampling : 4:2:0\nBit depth: 8 bits\nScan type: Progressive\nBits/(Pixel*Frame) : 0.158\nStream size: 372 MiB (90%)\nWriting library: x264 core 130 r2273 b3065e6\n\nAudio\nID : 2\nFormat : AAC\nFormat/Info: Advanced Audio Codec\nFormat profile : LC\nCodec ID : 40\nDuration : 44mn 1s\nBit rate mode: Variable\nBit rate : 128 Kbps\nMaximum bit rate : 146 Kbps\nChannel(s) : 2 channels\nChannel positions: Front: L R\nSampling rate: 48.0 KHz\nCompression mode : Lossy\nDelay relative to video: 80ms\nStream size: 40.3 MiB (10%)\nLanguage : English","torrent":{"xt":"urn:btih:0750ecf38389b5290ff563a8c5e335af6b4ada57","amp;dn":"Rugby.Union-Scrum.V-2013.03.03.pdtv.x264","amp;tr":["udp%3A%2F%2Ftracker.openbittorrent.com%3A80","udp%3A%2F%2Fopen.demonii.com%3A1337","udp%3A%2F%2Ftracker.coppersurfer.tk%3A6969","udp%3A%2F%2Fexodus.desync.com%3A6969"],"infoHash":"0750ecf38389b5290ff563a8c5e335af6b4ada57","infoHashBuffer":{"type":"Buffer","data":[7,80,236,243,131,137,181,41,15,245,99,168,197,227,53,175,107,74,218,87]},"announce":[],"urlList":[]}}